<svg width="17" height="17" viewBox="0 0 17 17" fill="none" xmlns="http://www.w3.org/2000/svg">
<path fill-rule="evenodd" clip-rule="evenodd" d="M16.66 8.69372C16.66 8.09099 16.6059 7.51144 16.5055 6.95508H8.5V10.243H13.0746C12.8775 11.3055 12.2786 12.2058 11.3784 12.8085V14.9412H14.1255C15.7327 13.4615 16.66 11.2824 16.66 8.69372Z" fill="#4285F4"/>
<path fill-rule="evenodd" clip-rule="evenodd" d="M8.50022 17.0002C10.7952 17.0002 12.7193 16.2391 14.1257 14.9409L11.3786 12.8082C10.6175 13.3182 9.64386 13.6196 8.50022 13.6196C6.28635 13.6196 4.41248 12.1243 3.74407 10.1152H0.904297V12.3175C2.30294 15.0955 5.17749 17.0002 8.50022 17.0002Z" fill="#34A853"/>
<path fill-rule="evenodd" clip-rule="evenodd" d="M3.74387 10.1159C3.57387 9.60587 3.47728 9.0611 3.47728 8.50087C3.47728 7.94064 3.57387 7.39587 3.74387 6.88587V4.68359H0.904092C0.32841 5.8311 0 7.12928 0 8.50087C0 9.87246 0.32841 11.1706 0.904092 12.3182L3.74387 10.1159Z" fill="#FBBC05"/>
<path fill-rule="evenodd" clip-rule="evenodd" d="M8.50022 3.38069C9.74817 3.38069 10.8686 3.80955 11.7495 4.65183L14.1875 2.21387C12.7155 0.842274 10.7914 0 8.50022 0C5.17749 0 2.30294 1.90478 0.904297 4.68273L3.74407 6.88501C4.41248 4.87592 6.28635 3.38069 8.50022 3.38069Z" fill="#EA4335"/>
</svg>
